<mxfile host="Electron" modified="2024-03-08T11:49:52.187Z" agent="Mozilla/5.0 (Windows NT 10.0; Win64; x64) AppleWebKit/537.36 (KHTML, like Gecko) draw.io/23.1.5 Chrome/120.0.6099.109 Electron/28.1.0 Safari/537.36" etag="_fKJ0bMKByLRLiDX1Q9M" version="23.1.5" type="device" pages="3">
  <diagram name="notification-api" id="q_dIgEoVSEd1kakQgWqN">
    <mxGraphModel dx="1422" dy="823" grid="1" gridSize="10" guides="1" tooltips="1" connect="1" arrows="1" fold="1" page="1" pageScale="1" pageWidth="1100" pageHeight="850" math="0" shadow="0">
      <root>
        <mxCell id="0" />
        <mxCell id="1" parent="0" />
        <mxCell id="yG04vvNqIEu3G0-d8-jx-7" style="edgeStyle=orthogonalEdgeStyle;rounded=0;orthogonalLoop=1;jettySize=auto;html=1;entryX=0;entryY=0.5;entryDx=0;entryDy=0;exitX=0.5;exitY=1;exitDx=0;exitDy=0;" edge="1" parent="1" source="yG04vvNqIEu3G0-d8-jx-8" target="yG04vvNqIEu3G0-d8-jx-5">
          <mxGeometry relative="1" as="geometry" />
        </mxCell>
        <mxCell id="yG04vvNqIEu3G0-d8-jx-13" style="edgeStyle=orthogonalEdgeStyle;rounded=0;orthogonalLoop=1;jettySize=auto;html=1;entryX=0;entryY=0.5;entryDx=0;entryDy=0;exitX=0.5;exitY=0;exitDx=0;exitDy=0;" edge="1" parent="1" source="yG04vvNqIEu3G0-d8-jx-14" target="yG04vvNqIEu3G0-d8-jx-4">
          <mxGeometry relative="1" as="geometry" />
        </mxCell>
        <mxCell id="yG04vvNqIEu3G0-d8-jx-1" value="Open-forms" style="rounded=0;whiteSpace=wrap;html=1;fillColor=#fff2cc;strokeColor=#d6b656;" vertex="1" parent="1">
          <mxGeometry x="100" y="145" width="120" height="60" as="geometry" />
        </mxCell>
        <mxCell id="yG04vvNqIEu3G0-d8-jx-18" style="edgeStyle=orthogonalEdgeStyle;rounded=0;orthogonalLoop=1;jettySize=auto;html=1;entryX=1;entryY=0.5;entryDx=0;entryDy=0;dashed=1;" edge="1" parent="1" source="yG04vvNqIEu3G0-d8-jx-3" target="yG04vvNqIEu3G0-d8-jx-16">
          <mxGeometry relative="1" as="geometry" />
        </mxCell>
        <mxCell id="yG04vvNqIEu3G0-d8-jx-20" style="edgeStyle=orthogonalEdgeStyle;rounded=0;orthogonalLoop=1;jettySize=auto;html=1;entryX=1;entryY=0.5;entryDx=0;entryDy=0;exitX=0;exitY=0.5;exitDx=0;exitDy=0;" edge="1" parent="1" source="yG04vvNqIEu3G0-d8-jx-21" target="yG04vvNqIEu3G0-d8-jx-4">
          <mxGeometry relative="1" as="geometry" />
        </mxCell>
        <mxCell id="yG04vvNqIEu3G0-d8-jx-23" style="edgeStyle=orthogonalEdgeStyle;rounded=0;orthogonalLoop=1;jettySize=auto;html=1;entryX=1;entryY=0.5;entryDx=0;entryDy=0;exitX=0;exitY=0.5;exitDx=0;exitDy=0;" edge="1" parent="1" source="yG04vvNqIEu3G0-d8-jx-24" target="yG04vvNqIEu3G0-d8-jx-5">
          <mxGeometry relative="1" as="geometry" />
        </mxCell>
        <mxCell id="yG04vvNqIEu3G0-d8-jx-31" style="edgeStyle=orthogonalEdgeStyle;rounded=0;orthogonalLoop=1;jettySize=auto;html=1;entryX=0;entryY=0.5;entryDx=0;entryDy=0;" edge="1" parent="1" source="yG04vvNqIEu3G0-d8-jx-32" target="yG04vvNqIEu3G0-d8-jx-30">
          <mxGeometry relative="1" as="geometry" />
        </mxCell>
        <mxCell id="yG04vvNqIEu3G0-d8-jx-34" style="edgeStyle=orthogonalEdgeStyle;rounded=0;orthogonalLoop=1;jettySize=auto;html=1;entryX=0;entryY=0.5;entryDx=0;entryDy=0;" edge="1" parent="1" source="yG04vvNqIEu3G0-d8-jx-35" target="yG04vvNqIEu3G0-d8-jx-26">
          <mxGeometry relative="1" as="geometry" />
        </mxCell>
        <mxCell id="yG04vvNqIEu3G0-d8-jx-41" style="edgeStyle=orthogonalEdgeStyle;rounded=0;orthogonalLoop=1;jettySize=auto;html=1;entryX=0;entryY=0.5;entryDx=0;entryDy=0;" edge="1" parent="1" source="yG04vvNqIEu3G0-d8-jx-42" target="yG04vvNqIEu3G0-d8-jx-28">
          <mxGeometry relative="1" as="geometry" />
        </mxCell>
        <mxCell id="yG04vvNqIEu3G0-d8-jx-45" style="edgeStyle=orthogonalEdgeStyle;rounded=0;orthogonalLoop=1;jettySize=auto;html=1;entryX=0;entryY=0.5;entryDx=0;entryDy=0;" edge="1" parent="1" source="yG04vvNqIEu3G0-d8-jx-44" target="yG04vvNqIEu3G0-d8-jx-29">
          <mxGeometry relative="1" as="geometry" />
        </mxCell>
        <mxCell id="yG04vvNqIEu3G0-d8-jx-47" style="edgeStyle=orthogonalEdgeStyle;rounded=0;orthogonalLoop=1;jettySize=auto;html=1;entryX=0;entryY=0.5;entryDx=0;entryDy=0;" edge="1" parent="1" source="yG04vvNqIEu3G0-d8-jx-48" target="yG04vvNqIEu3G0-d8-jx-27">
          <mxGeometry relative="1" as="geometry" />
        </mxCell>
        <mxCell id="yG04vvNqIEu3G0-d8-jx-3" value="Openforms2bpel" style="rounded=0;whiteSpace=wrap;html=1;fillColor=#d5e8d4;strokeColor=#82b366;" vertex="1" parent="1">
          <mxGeometry x="590" y="145" width="120" height="60" as="geometry" />
        </mxCell>
        <mxCell id="yG04vvNqIEu3G0-d8-jx-4" value="Documenten API" style="rounded=1;whiteSpace=wrap;html=1;fillColor=#fff2cc;strokeColor=#d6b656;" vertex="1" parent="1">
          <mxGeometry x="250" y="60" width="130" height="30" as="geometry" />
        </mxCell>
        <mxCell id="yG04vvNqIEu3G0-d8-jx-10" style="edgeStyle=orthogonalEdgeStyle;rounded=0;orthogonalLoop=1;jettySize=auto;html=1;" edge="1" parent="1" source="yG04vvNqIEu3G0-d8-jx-11" target="yG04vvNqIEu3G0-d8-jx-6">
          <mxGeometry relative="1" as="geometry" />
        </mxCell>
        <mxCell id="yG04vvNqIEu3G0-d8-jx-5" value="Objects API" style="rounded=1;whiteSpace=wrap;html=1;fillColor=#fff2cc;strokeColor=#d6b656;" vertex="1" parent="1">
          <mxGeometry x="250" y="260" width="130" height="30" as="geometry" />
        </mxCell>
        <mxCell id="yG04vvNqIEu3G0-d8-jx-17" style="edgeStyle=orthogonalEdgeStyle;rounded=0;orthogonalLoop=1;jettySize=auto;html=1;entryX=0;entryY=0.5;entryDx=0;entryDy=0;" edge="1" parent="1" source="yG04vvNqIEu3G0-d8-jx-6" target="yG04vvNqIEu3G0-d8-jx-16">
          <mxGeometry relative="1" as="geometry" />
        </mxCell>
        <mxCell id="yG04vvNqIEu3G0-d8-jx-6" value="Notificaties API" style="rounded=1;whiteSpace=wrap;html=1;fillColor=#fff2cc;strokeColor=#d6b656;" vertex="1" parent="1">
          <mxGeometry x="250" y="160" width="130" height="30" as="geometry" />
        </mxCell>
        <mxCell id="yG04vvNqIEu3G0-d8-jx-9" value="" style="edgeStyle=orthogonalEdgeStyle;rounded=0;orthogonalLoop=1;jettySize=auto;html=1;entryX=0.5;entryY=0;entryDx=0;entryDy=0;exitX=0.5;exitY=1;exitDx=0;exitDy=0;" edge="1" parent="1" source="yG04vvNqIEu3G0-d8-jx-1" target="yG04vvNqIEu3G0-d8-jx-8">
          <mxGeometry relative="1" as="geometry">
            <mxPoint x="170" y="200" as="sourcePoint" />
            <mxPoint x="250" y="275" as="targetPoint" />
          </mxGeometry>
        </mxCell>
        <mxCell id="yG04vvNqIEu3G0-d8-jx-8" value="uploads formdata &amp;amp; metadata" style="text;html=1;align=center;verticalAlign=middle;whiteSpace=wrap;rounded=0;" vertex="1" parent="1">
          <mxGeometry x="115" y="220" width="90" height="30" as="geometry" />
        </mxCell>
        <mxCell id="yG04vvNqIEu3G0-d8-jx-12" value="" style="edgeStyle=orthogonalEdgeStyle;rounded=0;orthogonalLoop=1;jettySize=auto;html=1;" edge="1" parent="1" source="yG04vvNqIEu3G0-d8-jx-5" target="yG04vvNqIEu3G0-d8-jx-11">
          <mxGeometry relative="1" as="geometry">
            <mxPoint x="315" y="260" as="sourcePoint" />
            <mxPoint x="315" y="215" as="targetPoint" />
          </mxGeometry>
        </mxCell>
        <mxCell id="yG04vvNqIEu3G0-d8-jx-11" value="notifies object created" style="text;html=1;align=center;verticalAlign=middle;whiteSpace=wrap;rounded=0;" vertex="1" parent="1">
          <mxGeometry x="246.25" y="210" width="137.5" height="30" as="geometry" />
        </mxCell>
        <mxCell id="yG04vvNqIEu3G0-d8-jx-15" value="" style="edgeStyle=orthogonalEdgeStyle;rounded=0;orthogonalLoop=1;jettySize=auto;html=1;entryX=0.5;entryY=1;entryDx=0;entryDy=0;exitX=0.5;exitY=0;exitDx=0;exitDy=0;" edge="1" parent="1" source="yG04vvNqIEu3G0-d8-jx-1" target="yG04vvNqIEu3G0-d8-jx-14">
          <mxGeometry relative="1" as="geometry">
            <mxPoint x="100" y="200" as="sourcePoint" />
            <mxPoint x="250" y="75" as="targetPoint" />
          </mxGeometry>
        </mxCell>
        <mxCell id="yG04vvNqIEu3G0-d8-jx-14" value="uploads form attachments" style="text;html=1;align=center;verticalAlign=middle;whiteSpace=wrap;rounded=0;" vertex="1" parent="1">
          <mxGeometry x="115" y="100" width="90" height="30" as="geometry" />
        </mxCell>
        <mxCell id="yG04vvNqIEu3G0-d8-jx-16" value="Notification API callback" style="rounded=1;whiteSpace=wrap;html=1;fillColor=#d5e8d4;strokeColor=#82b366;" vertex="1" parent="1">
          <mxGeometry x="420" y="160" width="130" height="30" as="geometry" />
        </mxCell>
        <mxCell id="yG04vvNqIEu3G0-d8-jx-22" value="" style="edgeStyle=orthogonalEdgeStyle;rounded=0;orthogonalLoop=1;jettySize=auto;html=1;entryX=1;entryY=0.5;entryDx=0;entryDy=0;exitX=0.5;exitY=0;exitDx=0;exitDy=0;" edge="1" parent="1" source="yG04vvNqIEu3G0-d8-jx-3" target="yG04vvNqIEu3G0-d8-jx-21">
          <mxGeometry relative="1" as="geometry">
            <mxPoint x="700" y="145" as="sourcePoint" />
            <mxPoint x="380" y="75" as="targetPoint" />
          </mxGeometry>
        </mxCell>
        <mxCell id="yG04vvNqIEu3G0-d8-jx-21" value="retrieves form attachments" style="text;html=1;align=center;verticalAlign=middle;whiteSpace=wrap;rounded=0;" vertex="1" parent="1">
          <mxGeometry x="495" y="60" width="85" height="30" as="geometry" />
        </mxCell>
        <mxCell id="yG04vvNqIEu3G0-d8-jx-25" value="" style="edgeStyle=orthogonalEdgeStyle;rounded=0;orthogonalLoop=1;jettySize=auto;html=1;entryX=1;entryY=0.5;entryDx=0;entryDy=0;exitX=0.5;exitY=1;exitDx=0;exitDy=0;" edge="1" parent="1" source="yG04vvNqIEu3G0-d8-jx-3" target="yG04vvNqIEu3G0-d8-jx-24">
          <mxGeometry relative="1" as="geometry">
            <mxPoint x="700" y="205" as="sourcePoint" />
            <mxPoint x="380" y="275" as="targetPoint" />
          </mxGeometry>
        </mxCell>
        <mxCell id="yG04vvNqIEu3G0-d8-jx-24" value="retrieves object with formdata &amp;amp; metadata" style="text;html=1;align=center;verticalAlign=middle;whiteSpace=wrap;rounded=0;" vertex="1" parent="1">
          <mxGeometry x="477.5" y="250" width="120" height="50" as="geometry" />
        </mxCell>
        <mxCell id="yG04vvNqIEu3G0-d8-jx-26" value="payment-service" style="rounded=1;whiteSpace=wrap;html=1;fillColor=#dae8fc;strokeColor=#6c8ebf;" vertex="1" parent="1">
          <mxGeometry x="921" y="88" width="160" height="32" as="geometry" />
        </mxCell>
        <mxCell id="yG04vvNqIEu3G0-d8-jx-27" value="basic-status-update-service" style="rounded=1;whiteSpace=wrap;html=1;fillColor=#dae8fc;strokeColor=#6c8ebf;" vertex="1" parent="1">
          <mxGeometry x="921" y="300" width="160" height="30" as="geometry" />
        </mxCell>
        <mxCell id="yG04vvNqIEu3G0-d8-jx-28" value="documents-service" style="rounded=1;whiteSpace=wrap;html=1;fillColor=#dae8fc;strokeColor=#6c8ebf;" vertex="1" parent="1">
          <mxGeometry x="921" y="160" width="160" height="30" as="geometry" />
        </mxCell>
        <mxCell id="yG04vvNqIEu3G0-d8-jx-29" value="mtom-service" style="rounded=1;whiteSpace=wrap;html=1;fillColor=#dae8fc;strokeColor=#6c8ebf;" vertex="1" parent="1">
          <mxGeometry x="921" y="235" width="160" height="30" as="geometry" />
        </mxCell>
        <mxCell id="yG04vvNqIEu3G0-d8-jx-30" value="bpel-basic-service" style="rounded=1;whiteSpace=wrap;html=1;fillColor=#dae8fc;strokeColor=#6c8ebf;" vertex="1" parent="1">
          <mxGeometry x="921" y="30" width="160" height="30" as="geometry" />
        </mxCell>
        <mxCell id="yG04vvNqIEu3G0-d8-jx-33" value="" style="edgeStyle=orthogonalEdgeStyle;rounded=0;orthogonalLoop=1;jettySize=auto;html=1;entryX=0;entryY=0.5;entryDx=0;entryDy=0;" edge="1" parent="1" source="yG04vvNqIEu3G0-d8-jx-3" target="yG04vvNqIEu3G0-d8-jx-32">
          <mxGeometry relative="1" as="geometry">
            <mxPoint x="710" y="175" as="sourcePoint" />
            <mxPoint x="850" y="-5" as="targetPoint" />
          </mxGeometry>
        </mxCell>
        <mxCell id="yG04vvNqIEu3G0-d8-jx-32" value="initiates and registers basic process" style="text;html=1;align=center;verticalAlign=middle;whiteSpace=wrap;rounded=0;" vertex="1" parent="1">
          <mxGeometry x="770" y="30" width="120" height="30" as="geometry" />
        </mxCell>
        <mxCell id="yG04vvNqIEu3G0-d8-jx-36" value="" style="edgeStyle=orthogonalEdgeStyle;rounded=0;orthogonalLoop=1;jettySize=auto;html=1;entryX=0;entryY=0.5;entryDx=0;entryDy=0;" edge="1" parent="1" source="yG04vvNqIEu3G0-d8-jx-3" target="yG04vvNqIEu3G0-d8-jx-35">
          <mxGeometry relative="1" as="geometry">
            <mxPoint x="710" y="175" as="sourcePoint" />
            <mxPoint x="900" y="45" as="targetPoint" />
          </mxGeometry>
        </mxCell>
        <mxCell id="yG04vvNqIEu3G0-d8-jx-35" value="obtains paymentId &amp;amp; sets payment status" style="text;html=1;align=center;verticalAlign=middle;whiteSpace=wrap;rounded=0;" vertex="1" parent="1">
          <mxGeometry x="770" y="90" width="120" height="30" as="geometry" />
        </mxCell>
        <mxCell id="yG04vvNqIEu3G0-d8-jx-43" value="" style="edgeStyle=orthogonalEdgeStyle;rounded=0;orthogonalLoop=1;jettySize=auto;html=1;entryX=0;entryY=0.5;entryDx=0;entryDy=0;" edge="1" parent="1" source="yG04vvNqIEu3G0-d8-jx-3" target="yG04vvNqIEu3G0-d8-jx-42">
          <mxGeometry relative="1" as="geometry">
            <mxPoint x="710" y="175" as="sourcePoint" />
            <mxPoint x="921" y="95" as="targetPoint" />
          </mxGeometry>
        </mxCell>
        <mxCell id="yG04vvNqIEu3G0-d8-jx-42" value="starts and stops upload batch &amp;amp; adds attachment metadata to case" style="text;html=1;align=center;verticalAlign=middle;whiteSpace=wrap;rounded=0;" vertex="1" parent="1">
          <mxGeometry x="770" y="142.5" width="120" height="65" as="geometry" />
        </mxCell>
        <mxCell id="yG04vvNqIEu3G0-d8-jx-46" value="" style="edgeStyle=orthogonalEdgeStyle;rounded=0;orthogonalLoop=1;jettySize=auto;html=1;entryX=0;entryY=0.5;entryDx=0;entryDy=0;" edge="1" parent="1" source="yG04vvNqIEu3G0-d8-jx-3" target="yG04vvNqIEu3G0-d8-jx-44">
          <mxGeometry relative="1" as="geometry">
            <mxPoint x="710" y="175" as="sourcePoint" />
            <mxPoint x="921" y="145" as="targetPoint" />
          </mxGeometry>
        </mxCell>
        <mxCell id="yG04vvNqIEu3G0-d8-jx-44" value="uploads attachment file content to document vault" style="text;html=1;align=center;verticalAlign=middle;whiteSpace=wrap;rounded=0;" vertex="1" parent="1">
          <mxGeometry x="770" y="235" width="120" height="30" as="geometry" />
        </mxCell>
        <mxCell id="yG04vvNqIEu3G0-d8-jx-49" value="" style="edgeStyle=orthogonalEdgeStyle;rounded=0;orthogonalLoop=1;jettySize=auto;html=1;entryX=0;entryY=0.5;entryDx=0;entryDy=0;" edge="1" parent="1" source="yG04vvNqIEu3G0-d8-jx-3" target="yG04vvNqIEu3G0-d8-jx-48">
          <mxGeometry relative="1" as="geometry">
            <mxPoint x="710" y="175" as="sourcePoint" />
            <mxPoint x="921" y="195" as="targetPoint" />
          </mxGeometry>
        </mxCell>
        <mxCell id="yG04vvNqIEu3G0-d8-jx-48" value="updates the upload status of documents" style="text;html=1;align=center;verticalAlign=middle;whiteSpace=wrap;rounded=0;" vertex="1" parent="1">
          <mxGeometry x="770" y="300" width="120" height="30" as="geometry" />
        </mxCell>
        <mxCell id="yG04vvNqIEu3G0-d8-jx-51" style="edgeStyle=orthogonalEdgeStyle;rounded=0;orthogonalLoop=1;jettySize=auto;html=1;entryX=1;entryY=0.5;entryDx=0;entryDy=0;dashed=1;" edge="1" parent="1" source="yG04vvNqIEu3G0-d8-jx-50" target="yG04vvNqIEu3G0-d8-jx-30">
          <mxGeometry relative="1" as="geometry" />
        </mxCell>
        <mxCell id="yG04vvNqIEu3G0-d8-jx-50" value="Exxellence" style="rounded=0;whiteSpace=wrap;html=1;fillColor=#dae8fc;strokeColor=#6c8ebf;" vertex="1" parent="1">
          <mxGeometry x="1150" y="145" width="120" height="60" as="geometry" />
        </mxCell>
        <mxCell id="yG04vvNqIEu3G0-d8-jx-52" style="edgeStyle=orthogonalEdgeStyle;rounded=0;orthogonalLoop=1;jettySize=auto;html=1;entryX=1;entryY=0.5;entryDx=0;entryDy=0;dashed=1;exitX=0;exitY=0.5;exitDx=0;exitDy=0;" edge="1" parent="1" source="yG04vvNqIEu3G0-d8-jx-50" target="yG04vvNqIEu3G0-d8-jx-26">
          <mxGeometry relative="1" as="geometry">
            <mxPoint x="1160" y="185" as="sourcePoint" />
            <mxPoint x="1091" y="55" as="targetPoint" />
          </mxGeometry>
        </mxCell>
        <mxCell id="yG04vvNqIEu3G0-d8-jx-53" style="edgeStyle=orthogonalEdgeStyle;rounded=0;orthogonalLoop=1;jettySize=auto;html=1;entryX=1;entryY=0.5;entryDx=0;entryDy=0;dashed=1;exitX=0;exitY=0.5;exitDx=0;exitDy=0;" edge="1" parent="1" source="yG04vvNqIEu3G0-d8-jx-50" target="yG04vvNqIEu3G0-d8-jx-28">
          <mxGeometry relative="1" as="geometry">
            <mxPoint x="1160" y="185" as="sourcePoint" />
            <mxPoint x="1091" y="114" as="targetPoint" />
          </mxGeometry>
        </mxCell>
        <mxCell id="yG04vvNqIEu3G0-d8-jx-54" style="edgeStyle=orthogonalEdgeStyle;rounded=0;orthogonalLoop=1;jettySize=auto;html=1;entryX=1;entryY=0.5;entryDx=0;entryDy=0;dashed=1;exitX=0;exitY=0.5;exitDx=0;exitDy=0;" edge="1" parent="1" source="yG04vvNqIEu3G0-d8-jx-50" target="yG04vvNqIEu3G0-d8-jx-29">
          <mxGeometry relative="1" as="geometry">
            <mxPoint x="1160" y="185" as="sourcePoint" />
            <mxPoint x="1091" y="185" as="targetPoint" />
          </mxGeometry>
        </mxCell>
        <mxCell id="yG04vvNqIEu3G0-d8-jx-55" style="edgeStyle=orthogonalEdgeStyle;rounded=0;orthogonalLoop=1;jettySize=auto;html=1;entryX=1;entryY=0.5;entryDx=0;entryDy=0;dashed=1;exitX=0;exitY=0.5;exitDx=0;exitDy=0;" edge="1" parent="1" source="yG04vvNqIEu3G0-d8-jx-50" target="yG04vvNqIEu3G0-d8-jx-27">
          <mxGeometry relative="1" as="geometry">
            <mxPoint x="1160" y="185" as="sourcePoint" />
            <mxPoint x="1091" y="260" as="targetPoint" />
          </mxGeometry>
        </mxCell>
      </root>
    </mxGraphModel>
  </diagram>
  <diagram name="objects-api" id="9IMU18AOtWIEGtUivdri">
    <mxGraphModel dx="1422" dy="823" grid="1" gridSize="10" guides="1" tooltips="1" connect="1" arrows="1" fold="1" page="1" pageScale="1" pageWidth="1100" pageHeight="850" math="0" shadow="0">
      <root>
        <mxCell id="H4djLc-Ziq9ouS6SSaGA-0" />
        <mxCell id="H4djLc-Ziq9ouS6SSaGA-1" parent="H4djLc-Ziq9ouS6SSaGA-0" />
        <mxCell id="H4djLc-Ziq9ouS6SSaGA-3" style="edgeStyle=orthogonalEdgeStyle;rounded=0;orthogonalLoop=1;jettySize=auto;html=1;entryX=0;entryY=0.5;entryDx=0;entryDy=0;exitX=0.5;exitY=0;exitDx=0;exitDy=0;" edge="1" parent="H4djLc-Ziq9ouS6SSaGA-1" source="H4djLc-Ziq9ouS6SSaGA-24" target="H4djLc-Ziq9ouS6SSaGA-14">
          <mxGeometry relative="1" as="geometry" />
        </mxCell>
        <mxCell id="H4djLc-Ziq9ouS6SSaGA-4" value="Open-forms" style="rounded=0;whiteSpace=wrap;html=1;fillColor=#fff2cc;strokeColor=#d6b656;" vertex="1" parent="H4djLc-Ziq9ouS6SSaGA-1">
          <mxGeometry x="100" y="145" width="120" height="60" as="geometry" />
        </mxCell>
        <mxCell id="H4djLc-Ziq9ouS6SSaGA-5" style="edgeStyle=orthogonalEdgeStyle;rounded=0;orthogonalLoop=1;jettySize=auto;html=1;entryX=0.5;entryY=0;entryDx=0;entryDy=0;dashed=1;" edge="1" parent="H4djLc-Ziq9ouS6SSaGA-1" source="H4djLc-Ziq9ouS6SSaGA-13" target="H4djLc-Ziq9ouS6SSaGA-25">
          <mxGeometry relative="1" as="geometry" />
        </mxCell>
        <mxCell id="H4djLc-Ziq9ouS6SSaGA-6" style="edgeStyle=orthogonalEdgeStyle;rounded=0;orthogonalLoop=1;jettySize=auto;html=1;entryX=1;entryY=0.5;entryDx=0;entryDy=0;exitX=0;exitY=0.5;exitDx=0;exitDy=0;" edge="1" parent="H4djLc-Ziq9ouS6SSaGA-1" source="H4djLc-Ziq9ouS6SSaGA-27" target="H4djLc-Ziq9ouS6SSaGA-14">
          <mxGeometry relative="1" as="geometry" />
        </mxCell>
        <mxCell id="H4djLc-Ziq9ouS6SSaGA-8" style="edgeStyle=orthogonalEdgeStyle;rounded=0;orthogonalLoop=1;jettySize=auto;html=1;entryX=0;entryY=0.5;entryDx=0;entryDy=0;" edge="1" parent="H4djLc-Ziq9ouS6SSaGA-1" source="H4djLc-Ziq9ouS6SSaGA-36" target="H4djLc-Ziq9ouS6SSaGA-34">
          <mxGeometry relative="1" as="geometry" />
        </mxCell>
        <mxCell id="H4djLc-Ziq9ouS6SSaGA-9" style="edgeStyle=orthogonalEdgeStyle;rounded=0;orthogonalLoop=1;jettySize=auto;html=1;entryX=0;entryY=0.5;entryDx=0;entryDy=0;" edge="1" parent="H4djLc-Ziq9ouS6SSaGA-1" source="H4djLc-Ziq9ouS6SSaGA-38" target="H4djLc-Ziq9ouS6SSaGA-30">
          <mxGeometry relative="1" as="geometry" />
        </mxCell>
        <mxCell id="H4djLc-Ziq9ouS6SSaGA-10" style="edgeStyle=orthogonalEdgeStyle;rounded=0;orthogonalLoop=1;jettySize=auto;html=1;entryX=0;entryY=0.5;entryDx=0;entryDy=0;" edge="1" parent="H4djLc-Ziq9ouS6SSaGA-1" source="H4djLc-Ziq9ouS6SSaGA-40" target="H4djLc-Ziq9ouS6SSaGA-32">
          <mxGeometry relative="1" as="geometry" />
        </mxCell>
        <mxCell id="H4djLc-Ziq9ouS6SSaGA-11" style="edgeStyle=orthogonalEdgeStyle;rounded=0;orthogonalLoop=1;jettySize=auto;html=1;entryX=0;entryY=0.5;entryDx=0;entryDy=0;" edge="1" parent="H4djLc-Ziq9ouS6SSaGA-1" source="H4djLc-Ziq9ouS6SSaGA-42" target="H4djLc-Ziq9ouS6SSaGA-33">
          <mxGeometry relative="1" as="geometry" />
        </mxCell>
        <mxCell id="H4djLc-Ziq9ouS6SSaGA-12" style="edgeStyle=orthogonalEdgeStyle;rounded=0;orthogonalLoop=1;jettySize=auto;html=1;entryX=0;entryY=0.5;entryDx=0;entryDy=0;" edge="1" parent="H4djLc-Ziq9ouS6SSaGA-1" source="H4djLc-Ziq9ouS6SSaGA-44" target="H4djLc-Ziq9ouS6SSaGA-31">
          <mxGeometry relative="1" as="geometry" />
        </mxCell>
        <mxCell id="H4djLc-Ziq9ouS6SSaGA-13" value="Openforms2bpel" style="rounded=0;whiteSpace=wrap;html=1;fillColor=#d5e8d4;strokeColor=#82b366;" vertex="1" parent="H4djLc-Ziq9ouS6SSaGA-1">
          <mxGeometry x="590" y="145" width="120" height="60" as="geometry" />
        </mxCell>
        <mxCell id="H4djLc-Ziq9ouS6SSaGA-14" value="Documenten API" style="rounded=1;whiteSpace=wrap;html=1;fillColor=#fff2cc;strokeColor=#d6b656;" vertex="1" parent="H4djLc-Ziq9ouS6SSaGA-1">
          <mxGeometry x="250" y="60" width="130" height="30" as="geometry" />
        </mxCell>
        <mxCell id="H4djLc-Ziq9ouS6SSaGA-19" value="" style="edgeStyle=orthogonalEdgeStyle;rounded=0;orthogonalLoop=1;jettySize=auto;html=1;entryX=0.5;entryY=0;entryDx=0;entryDy=0;exitX=0.5;exitY=1;exitDx=0;exitDy=0;" edge="1" parent="H4djLc-Ziq9ouS6SSaGA-1" source="H4djLc-Ziq9ouS6SSaGA-4" target="H4djLc-Ziq9ouS6SSaGA-20">
          <mxGeometry relative="1" as="geometry">
            <mxPoint x="170" y="200" as="sourcePoint" />
            <mxPoint x="250" y="275" as="targetPoint" />
          </mxGeometry>
        </mxCell>
        <mxCell id="TYsjRn6706-vXF4tB_---0" style="edgeStyle=orthogonalEdgeStyle;rounded=0;orthogonalLoop=1;jettySize=auto;html=1;entryX=0;entryY=0.5;entryDx=0;entryDy=0;exitX=0.5;exitY=1;exitDx=0;exitDy=0;" edge="1" parent="H4djLc-Ziq9ouS6SSaGA-1" source="H4djLc-Ziq9ouS6SSaGA-20" target="H4djLc-Ziq9ouS6SSaGA-25">
          <mxGeometry relative="1" as="geometry" />
        </mxCell>
        <mxCell id="H4djLc-Ziq9ouS6SSaGA-20" value="uploads formdata &amp;amp; metadata" style="text;html=1;align=center;verticalAlign=middle;whiteSpace=wrap;rounded=0;" vertex="1" parent="H4djLc-Ziq9ouS6SSaGA-1">
          <mxGeometry x="102.5" y="220" width="115" height="30" as="geometry" />
        </mxCell>
        <mxCell id="H4djLc-Ziq9ouS6SSaGA-23" value="" style="edgeStyle=orthogonalEdgeStyle;rounded=0;orthogonalLoop=1;jettySize=auto;html=1;entryX=0.5;entryY=1;entryDx=0;entryDy=0;exitX=0.5;exitY=0;exitDx=0;exitDy=0;" edge="1" parent="H4djLc-Ziq9ouS6SSaGA-1" source="H4djLc-Ziq9ouS6SSaGA-4" target="H4djLc-Ziq9ouS6SSaGA-24">
          <mxGeometry relative="1" as="geometry">
            <mxPoint x="100" y="200" as="sourcePoint" />
            <mxPoint x="250" y="75" as="targetPoint" />
          </mxGeometry>
        </mxCell>
        <mxCell id="H4djLc-Ziq9ouS6SSaGA-24" value="uploads form attachments" style="text;html=1;align=center;verticalAlign=middle;whiteSpace=wrap;rounded=0;" vertex="1" parent="H4djLc-Ziq9ouS6SSaGA-1">
          <mxGeometry x="115" y="100" width="90" height="30" as="geometry" />
        </mxCell>
        <mxCell id="H4djLc-Ziq9ouS6SSaGA-25" value="Objects API" style="rounded=1;whiteSpace=wrap;html=1;fillColor=#d5e8d4;strokeColor=#82b366;" vertex="1" parent="H4djLc-Ziq9ouS6SSaGA-1">
          <mxGeometry x="250" y="260" width="130" height="30" as="geometry" />
        </mxCell>
        <mxCell id="H4djLc-Ziq9ouS6SSaGA-26" value="" style="edgeStyle=orthogonalEdgeStyle;rounded=0;orthogonalLoop=1;jettySize=auto;html=1;entryX=1;entryY=0.5;entryDx=0;entryDy=0;exitX=0.5;exitY=0;exitDx=0;exitDy=0;" edge="1" parent="H4djLc-Ziq9ouS6SSaGA-1" source="H4djLc-Ziq9ouS6SSaGA-13" target="H4djLc-Ziq9ouS6SSaGA-27">
          <mxGeometry relative="1" as="geometry">
            <mxPoint x="700" y="145" as="sourcePoint" />
            <mxPoint x="380" y="75" as="targetPoint" />
          </mxGeometry>
        </mxCell>
        <mxCell id="H4djLc-Ziq9ouS6SSaGA-27" value="retrieves form attachments" style="text;html=1;align=center;verticalAlign=middle;whiteSpace=wrap;rounded=0;" vertex="1" parent="H4djLc-Ziq9ouS6SSaGA-1">
          <mxGeometry x="495" y="60" width="85" height="30" as="geometry" />
        </mxCell>
        <mxCell id="H4djLc-Ziq9ouS6SSaGA-30" value="payment-service" style="rounded=1;whiteSpace=wrap;html=1;fillColor=#dae8fc;strokeColor=#6c8ebf;" vertex="1" parent="H4djLc-Ziq9ouS6SSaGA-1">
          <mxGeometry x="921" y="88" width="160" height="32" as="geometry" />
        </mxCell>
        <mxCell id="H4djLc-Ziq9ouS6SSaGA-31" value="basic-status-update-service" style="rounded=1;whiteSpace=wrap;html=1;fillColor=#dae8fc;strokeColor=#6c8ebf;" vertex="1" parent="H4djLc-Ziq9ouS6SSaGA-1">
          <mxGeometry x="921" y="300" width="160" height="30" as="geometry" />
        </mxCell>
        <mxCell id="H4djLc-Ziq9ouS6SSaGA-32" value="documents-service" style="rounded=1;whiteSpace=wrap;html=1;fillColor=#dae8fc;strokeColor=#6c8ebf;" vertex="1" parent="H4djLc-Ziq9ouS6SSaGA-1">
          <mxGeometry x="921" y="160" width="160" height="30" as="geometry" />
        </mxCell>
        <mxCell id="H4djLc-Ziq9ouS6SSaGA-33" value="mtom-service" style="rounded=1;whiteSpace=wrap;html=1;fillColor=#dae8fc;strokeColor=#6c8ebf;" vertex="1" parent="H4djLc-Ziq9ouS6SSaGA-1">
          <mxGeometry x="921" y="235" width="160" height="30" as="geometry" />
        </mxCell>
        <mxCell id="H4djLc-Ziq9ouS6SSaGA-34" value="bpel-basic-service" style="rounded=1;whiteSpace=wrap;html=1;fillColor=#dae8fc;strokeColor=#6c8ebf;" vertex="1" parent="H4djLc-Ziq9ouS6SSaGA-1">
          <mxGeometry x="921" y="30" width="160" height="30" as="geometry" />
        </mxCell>
        <mxCell id="H4djLc-Ziq9ouS6SSaGA-35" value="" style="edgeStyle=orthogonalEdgeStyle;rounded=0;orthogonalLoop=1;jettySize=auto;html=1;entryX=0;entryY=0.5;entryDx=0;entryDy=0;" edge="1" parent="H4djLc-Ziq9ouS6SSaGA-1" source="H4djLc-Ziq9ouS6SSaGA-13" target="H4djLc-Ziq9ouS6SSaGA-36">
          <mxGeometry relative="1" as="geometry">
            <mxPoint x="710" y="175" as="sourcePoint" />
            <mxPoint x="850" y="-5" as="targetPoint" />
          </mxGeometry>
        </mxCell>
        <mxCell id="H4djLc-Ziq9ouS6SSaGA-36" value="initiates and registers basic process" style="text;html=1;align=center;verticalAlign=middle;whiteSpace=wrap;rounded=0;" vertex="1" parent="H4djLc-Ziq9ouS6SSaGA-1">
          <mxGeometry x="770" y="30" width="120" height="30" as="geometry" />
        </mxCell>
        <mxCell id="H4djLc-Ziq9ouS6SSaGA-37" value="" style="edgeStyle=orthogonalEdgeStyle;rounded=0;orthogonalLoop=1;jettySize=auto;html=1;entryX=0;entryY=0.5;entryDx=0;entryDy=0;" edge="1" parent="H4djLc-Ziq9ouS6SSaGA-1" source="H4djLc-Ziq9ouS6SSaGA-13" target="H4djLc-Ziq9ouS6SSaGA-38">
          <mxGeometry relative="1" as="geometry">
            <mxPoint x="710" y="175" as="sourcePoint" />
            <mxPoint x="900" y="45" as="targetPoint" />
          </mxGeometry>
        </mxCell>
        <mxCell id="H4djLc-Ziq9ouS6SSaGA-38" value="obtains paymentId &amp;amp; sets payment status" style="text;html=1;align=center;verticalAlign=middle;whiteSpace=wrap;rounded=0;" vertex="1" parent="H4djLc-Ziq9ouS6SSaGA-1">
          <mxGeometry x="770" y="90" width="120" height="30" as="geometry" />
        </mxCell>
        <mxCell id="H4djLc-Ziq9ouS6SSaGA-39" value="" style="edgeStyle=orthogonalEdgeStyle;rounded=0;orthogonalLoop=1;jettySize=auto;html=1;entryX=0;entryY=0.5;entryDx=0;entryDy=0;" edge="1" parent="H4djLc-Ziq9ouS6SSaGA-1" source="H4djLc-Ziq9ouS6SSaGA-13" target="H4djLc-Ziq9ouS6SSaGA-40">
          <mxGeometry relative="1" as="geometry">
            <mxPoint x="710" y="175" as="sourcePoint" />
            <mxPoint x="921" y="95" as="targetPoint" />
          </mxGeometry>
        </mxCell>
        <mxCell id="H4djLc-Ziq9ouS6SSaGA-40" value="starts and stops upload batch &amp;amp; adds attachment metadata to case" style="text;html=1;align=center;verticalAlign=middle;whiteSpace=wrap;rounded=0;" vertex="1" parent="H4djLc-Ziq9ouS6SSaGA-1">
          <mxGeometry x="770" y="142.5" width="120" height="65" as="geometry" />
        </mxCell>
        <mxCell id="H4djLc-Ziq9ouS6SSaGA-41" value="" style="edgeStyle=orthogonalEdgeStyle;rounded=0;orthogonalLoop=1;jettySize=auto;html=1;entryX=0;entryY=0.5;entryDx=0;entryDy=0;" edge="1" parent="H4djLc-Ziq9ouS6SSaGA-1" source="H4djLc-Ziq9ouS6SSaGA-13" target="H4djLc-Ziq9ouS6SSaGA-42">
          <mxGeometry relative="1" as="geometry">
            <mxPoint x="710" y="175" as="sourcePoint" />
            <mxPoint x="921" y="145" as="targetPoint" />
          </mxGeometry>
        </mxCell>
        <mxCell id="H4djLc-Ziq9ouS6SSaGA-42" value="uploads attachment file content to document vault" style="text;html=1;align=center;verticalAlign=middle;whiteSpace=wrap;rounded=0;" vertex="1" parent="H4djLc-Ziq9ouS6SSaGA-1">
          <mxGeometry x="770" y="235" width="120" height="30" as="geometry" />
        </mxCell>
        <mxCell id="H4djLc-Ziq9ouS6SSaGA-43" value="" style="edgeStyle=orthogonalEdgeStyle;rounded=0;orthogonalLoop=1;jettySize=auto;html=1;entryX=0;entryY=0.5;entryDx=0;entryDy=0;" edge="1" parent="H4djLc-Ziq9ouS6SSaGA-1" source="H4djLc-Ziq9ouS6SSaGA-13" target="H4djLc-Ziq9ouS6SSaGA-44">
          <mxGeometry relative="1" as="geometry">
            <mxPoint x="710" y="175" as="sourcePoint" />
            <mxPoint x="921" y="195" as="targetPoint" />
          </mxGeometry>
        </mxCell>
        <mxCell id="H4djLc-Ziq9ouS6SSaGA-44" value="updates the upload status of documents" style="text;html=1;align=center;verticalAlign=middle;whiteSpace=wrap;rounded=0;" vertex="1" parent="H4djLc-Ziq9ouS6SSaGA-1">
          <mxGeometry x="770" y="300" width="120" height="30" as="geometry" />
        </mxCell>
        <mxCell id="H4djLc-Ziq9ouS6SSaGA-45" style="edgeStyle=orthogonalEdgeStyle;rounded=0;orthogonalLoop=1;jettySize=auto;html=1;entryX=1;entryY=0.5;entryDx=0;entryDy=0;dashed=1;" edge="1" parent="H4djLc-Ziq9ouS6SSaGA-1" source="H4djLc-Ziq9ouS6SSaGA-46" target="H4djLc-Ziq9ouS6SSaGA-34">
          <mxGeometry relative="1" as="geometry" />
        </mxCell>
        <mxCell id="H4djLc-Ziq9ouS6SSaGA-46" value="Exxellence" style="rounded=0;whiteSpace=wrap;html=1;fillColor=#dae8fc;strokeColor=#6c8ebf;" vertex="1" parent="H4djLc-Ziq9ouS6SSaGA-1">
          <mxGeometry x="1150" y="145" width="120" height="60" as="geometry" />
        </mxCell>
        <mxCell id="H4djLc-Ziq9ouS6SSaGA-47" style="edgeStyle=orthogonalEdgeStyle;rounded=0;orthogonalLoop=1;jettySize=auto;html=1;entryX=1;entryY=0.5;entryDx=0;entryDy=0;dashed=1;exitX=0;exitY=0.5;exitDx=0;exitDy=0;" edge="1" parent="H4djLc-Ziq9ouS6SSaGA-1" source="H4djLc-Ziq9ouS6SSaGA-46" target="H4djLc-Ziq9ouS6SSaGA-30">
          <mxGeometry relative="1" as="geometry">
            <mxPoint x="1160" y="185" as="sourcePoint" />
            <mxPoint x="1091" y="55" as="targetPoint" />
          </mxGeometry>
        </mxCell>
        <mxCell id="H4djLc-Ziq9ouS6SSaGA-48" style="edgeStyle=orthogonalEdgeStyle;rounded=0;orthogonalLoop=1;jettySize=auto;html=1;entryX=1;entryY=0.5;entryDx=0;entryDy=0;dashed=1;exitX=0;exitY=0.5;exitDx=0;exitDy=0;" edge="1" parent="H4djLc-Ziq9ouS6SSaGA-1" source="H4djLc-Ziq9ouS6SSaGA-46" target="H4djLc-Ziq9ouS6SSaGA-32">
          <mxGeometry relative="1" as="geometry">
            <mxPoint x="1160" y="185" as="sourcePoint" />
            <mxPoint x="1091" y="114" as="targetPoint" />
          </mxGeometry>
        </mxCell>
        <mxCell id="H4djLc-Ziq9ouS6SSaGA-49" style="edgeStyle=orthogonalEdgeStyle;rounded=0;orthogonalLoop=1;jettySize=auto;html=1;entryX=1;entryY=0.5;entryDx=0;entryDy=0;dashed=1;exitX=0;exitY=0.5;exitDx=0;exitDy=0;" edge="1" parent="H4djLc-Ziq9ouS6SSaGA-1" source="H4djLc-Ziq9ouS6SSaGA-46" target="H4djLc-Ziq9ouS6SSaGA-33">
          <mxGeometry relative="1" as="geometry">
            <mxPoint x="1160" y="185" as="sourcePoint" />
            <mxPoint x="1091" y="185" as="targetPoint" />
          </mxGeometry>
        </mxCell>
        <mxCell id="H4djLc-Ziq9ouS6SSaGA-50" style="edgeStyle=orthogonalEdgeStyle;rounded=0;orthogonalLoop=1;jettySize=auto;html=1;entryX=1;entryY=0.5;entryDx=0;entryDy=0;dashed=1;exitX=0;exitY=0.5;exitDx=0;exitDy=0;" edge="1" parent="H4djLc-Ziq9ouS6SSaGA-1" source="H4djLc-Ziq9ouS6SSaGA-46" target="H4djLc-Ziq9ouS6SSaGA-31">
          <mxGeometry relative="1" as="geometry">
            <mxPoint x="1160" y="185" as="sourcePoint" />
            <mxPoint x="1091" y="260" as="targetPoint" />
          </mxGeometry>
        </mxCell>
      </root>
    </mxGraphModel>
  </diagram>
  <diagram name="zgw-apis" id="7Rdx4DvLogY93jZ7Asw_">
    <mxGraphModel dx="1718" dy="994" grid="1" gridSize="10" guides="1" tooltips="1" connect="1" arrows="1" fold="1" page="1" pageScale="1" pageWidth="1100" pageHeight="850" math="0" shadow="0">
      <root>
        <mxCell id="szTaljV_OaURg2IB99l--0" />
        <mxCell id="szTaljV_OaURg2IB99l--1" parent="szTaljV_OaURg2IB99l--0" />
        <mxCell id="szTaljV_OaURg2IB99l--2" style="edgeStyle=orthogonalEdgeStyle;rounded=0;orthogonalLoop=1;jettySize=auto;html=1;entryX=0;entryY=0.5;entryDx=0;entryDy=0;exitX=0.5;exitY=0;exitDx=0;exitDy=0;" edge="1" parent="szTaljV_OaURg2IB99l--1" source="szTaljV_OaURg2IB99l--17" target="szTaljV_OaURg2IB99l--12">
          <mxGeometry relative="1" as="geometry" />
        </mxCell>
        <mxCell id="9nDwpWP-V4P5zCPExfbS-5" style="edgeStyle=orthogonalEdgeStyle;rounded=0;orthogonalLoop=1;jettySize=auto;html=1;entryX=0;entryY=0.5;entryDx=0;entryDy=0;exitX=0.5;exitY=1;exitDx=0;exitDy=0;" edge="1" parent="szTaljV_OaURg2IB99l--1" source="9nDwpWP-V4P5zCPExfbS-6" target="9nDwpWP-V4P5zCPExfbS-1">
          <mxGeometry relative="1" as="geometry" />
        </mxCell>
        <mxCell id="jux0nmY_4wJP9NHEwxpd-0" style="edgeStyle=orthogonalEdgeStyle;rounded=0;orthogonalLoop=1;jettySize=auto;html=1;entryX=0;entryY=0.5;entryDx=0;entryDy=0;" edge="1" parent="szTaljV_OaURg2IB99l--1" source="jux0nmY_4wJP9NHEwxpd-1" target="9nDwpWP-V4P5zCPExfbS-0">
          <mxGeometry relative="1" as="geometry" />
        </mxCell>
        <mxCell id="szTaljV_OaURg2IB99l--3" value="Open-forms" style="rounded=0;whiteSpace=wrap;html=1;fillColor=#fff2cc;strokeColor=#d6b656;" vertex="1" parent="szTaljV_OaURg2IB99l--1">
          <mxGeometry x="100" y="145" width="120" height="60" as="geometry" />
        </mxCell>
        <mxCell id="szTaljV_OaURg2IB99l--6" style="edgeStyle=orthogonalEdgeStyle;rounded=0;orthogonalLoop=1;jettySize=auto;html=1;entryX=0;entryY=0.5;entryDx=0;entryDy=0;opacity=40;textOpacity=40;" edge="1" parent="szTaljV_OaURg2IB99l--1" source="szTaljV_OaURg2IB99l--27" target="szTaljV_OaURg2IB99l--25">
          <mxGeometry relative="1" as="geometry" />
        </mxCell>
        <mxCell id="szTaljV_OaURg2IB99l--7" style="edgeStyle=orthogonalEdgeStyle;rounded=0;orthogonalLoop=1;jettySize=auto;html=1;entryX=0;entryY=0.5;entryDx=0;entryDy=0;opacity=40;textOpacity=40;" edge="1" parent="szTaljV_OaURg2IB99l--1" source="szTaljV_OaURg2IB99l--29" target="szTaljV_OaURg2IB99l--21">
          <mxGeometry relative="1" as="geometry" />
        </mxCell>
        <mxCell id="szTaljV_OaURg2IB99l--8" style="edgeStyle=orthogonalEdgeStyle;rounded=0;orthogonalLoop=1;jettySize=auto;html=1;entryX=0;entryY=0.5;entryDx=0;entryDy=0;opacity=40;textOpacity=40;" edge="1" parent="szTaljV_OaURg2IB99l--1" source="szTaljV_OaURg2IB99l--31" target="szTaljV_OaURg2IB99l--23">
          <mxGeometry relative="1" as="geometry" />
        </mxCell>
        <mxCell id="szTaljV_OaURg2IB99l--9" style="edgeStyle=orthogonalEdgeStyle;rounded=0;orthogonalLoop=1;jettySize=auto;html=1;entryX=0;entryY=0.5;entryDx=0;entryDy=0;opacity=40;textOpacity=40;" edge="1" parent="szTaljV_OaURg2IB99l--1" source="szTaljV_OaURg2IB99l--33" target="szTaljV_OaURg2IB99l--24">
          <mxGeometry relative="1" as="geometry" />
        </mxCell>
        <mxCell id="szTaljV_OaURg2IB99l--10" style="edgeStyle=orthogonalEdgeStyle;rounded=0;orthogonalLoop=1;jettySize=auto;html=1;entryX=0;entryY=0.5;entryDx=0;entryDy=0;opacity=40;textOpacity=40;" edge="1" parent="szTaljV_OaURg2IB99l--1" source="szTaljV_OaURg2IB99l--35" target="szTaljV_OaURg2IB99l--22">
          <mxGeometry relative="1" as="geometry" />
        </mxCell>
        <mxCell id="9nDwpWP-V4P5zCPExfbS-2" style="edgeStyle=orthogonalEdgeStyle;rounded=0;orthogonalLoop=1;jettySize=auto;html=1;entryX=1;entryY=0.5;entryDx=0;entryDy=0;dashed=1;" edge="1" parent="szTaljV_OaURg2IB99l--1" source="szTaljV_OaURg2IB99l--11" target="9nDwpWP-V4P5zCPExfbS-0">
          <mxGeometry relative="1" as="geometry" />
        </mxCell>
        <mxCell id="9nDwpWP-V4P5zCPExfbS-3" style="edgeStyle=orthogonalEdgeStyle;rounded=0;orthogonalLoop=1;jettySize=auto;html=1;entryX=1;entryY=0.5;entryDx=0;entryDy=0;dashed=1;" edge="1" parent="szTaljV_OaURg2IB99l--1" source="szTaljV_OaURg2IB99l--11" target="szTaljV_OaURg2IB99l--12">
          <mxGeometry relative="1" as="geometry" />
        </mxCell>
        <mxCell id="jux0nmY_4wJP9NHEwxpd-3" style="edgeStyle=orthogonalEdgeStyle;rounded=0;orthogonalLoop=1;jettySize=auto;html=1;entryX=1;entryY=0.5;entryDx=0;entryDy=0;exitX=0.5;exitY=1;exitDx=0;exitDy=0;" edge="1" parent="szTaljV_OaURg2IB99l--1" source="jux0nmY_4wJP9NHEwxpd-4" target="9nDwpWP-V4P5zCPExfbS-1">
          <mxGeometry relative="1" as="geometry" />
        </mxCell>
        <mxCell id="szTaljV_OaURg2IB99l--11" value="Openforms2bpel" style="rounded=0;whiteSpace=wrap;html=1;fillColor=#d5e8d4;strokeColor=#82b366;" vertex="1" parent="szTaljV_OaURg2IB99l--1">
          <mxGeometry x="590" y="145" width="120" height="60" as="geometry" />
        </mxCell>
        <mxCell id="szTaljV_OaURg2IB99l--12" value="Documenten API" style="rounded=1;whiteSpace=wrap;html=1;fillColor=#d5e8d4;strokeColor=#82b366;" vertex="1" parent="szTaljV_OaURg2IB99l--1">
          <mxGeometry x="350" y="60" width="130" height="30" as="geometry" />
        </mxCell>
        <mxCell id="szTaljV_OaURg2IB99l--16" value="" style="edgeStyle=orthogonalEdgeStyle;rounded=0;orthogonalLoop=1;jettySize=auto;html=1;entryX=0.5;entryY=1;entryDx=0;entryDy=0;exitX=0.5;exitY=0;exitDx=0;exitDy=0;" edge="1" parent="szTaljV_OaURg2IB99l--1" source="szTaljV_OaURg2IB99l--3" target="szTaljV_OaURg2IB99l--17">
          <mxGeometry relative="1" as="geometry">
            <mxPoint x="100" y="200" as="sourcePoint" />
            <mxPoint x="250" y="75" as="targetPoint" />
          </mxGeometry>
        </mxCell>
        <mxCell id="szTaljV_OaURg2IB99l--17" value="uploads form attachments" style="text;html=1;align=center;verticalAlign=middle;whiteSpace=wrap;rounded=0;" vertex="1" parent="szTaljV_OaURg2IB99l--1">
          <mxGeometry x="115" y="100" width="90" height="30" as="geometry" />
        </mxCell>
        <mxCell id="szTaljV_OaURg2IB99l--21" value="payment-service" style="rounded=1;whiteSpace=wrap;html=1;fillColor=#dae8fc;strokeColor=#6c8ebf;opacity=40;textOpacity=40;" vertex="1" parent="szTaljV_OaURg2IB99l--1">
          <mxGeometry x="921" y="88" width="160" height="32" as="geometry" />
        </mxCell>
        <mxCell id="szTaljV_OaURg2IB99l--22" value="basic-status-update-service" style="rounded=1;whiteSpace=wrap;html=1;fillColor=#dae8fc;strokeColor=#6c8ebf;opacity=40;textOpacity=40;" vertex="1" parent="szTaljV_OaURg2IB99l--1">
          <mxGeometry x="921" y="300" width="160" height="30" as="geometry" />
        </mxCell>
        <mxCell id="szTaljV_OaURg2IB99l--23" value="documents-service" style="rounded=1;whiteSpace=wrap;html=1;fillColor=#dae8fc;strokeColor=#6c8ebf;opacity=40;textOpacity=40;" vertex="1" parent="szTaljV_OaURg2IB99l--1">
          <mxGeometry x="921" y="160" width="160" height="30" as="geometry" />
        </mxCell>
        <mxCell id="szTaljV_OaURg2IB99l--24" value="mtom-service" style="rounded=1;whiteSpace=wrap;html=1;fillColor=#dae8fc;strokeColor=#6c8ebf;opacity=40;textOpacity=40;" vertex="1" parent="szTaljV_OaURg2IB99l--1">
          <mxGeometry x="921" y="235" width="160" height="30" as="geometry" />
        </mxCell>
        <mxCell id="szTaljV_OaURg2IB99l--25" value="bpel-basic-service" style="rounded=1;whiteSpace=wrap;html=1;fillColor=#dae8fc;strokeColor=#6c8ebf;opacity=40;textOpacity=40;" vertex="1" parent="szTaljV_OaURg2IB99l--1">
          <mxGeometry x="921" y="30" width="160" height="30" as="geometry" />
        </mxCell>
        <mxCell id="szTaljV_OaURg2IB99l--26" value="" style="edgeStyle=orthogonalEdgeStyle;rounded=0;orthogonalLoop=1;jettySize=auto;html=1;entryX=0;entryY=0.5;entryDx=0;entryDy=0;opacity=40;textOpacity=40;" edge="1" parent="szTaljV_OaURg2IB99l--1" source="szTaljV_OaURg2IB99l--11" target="szTaljV_OaURg2IB99l--27">
          <mxGeometry relative="1" as="geometry">
            <mxPoint x="710" y="175" as="sourcePoint" />
            <mxPoint x="850" y="-5" as="targetPoint" />
          </mxGeometry>
        </mxCell>
        <mxCell id="szTaljV_OaURg2IB99l--27" value="initiates and registers basic process" style="text;html=1;align=center;verticalAlign=middle;whiteSpace=wrap;rounded=0;opacity=40;textOpacity=40;" vertex="1" parent="szTaljV_OaURg2IB99l--1">
          <mxGeometry x="770" y="30" width="120" height="30" as="geometry" />
        </mxCell>
        <mxCell id="szTaljV_OaURg2IB99l--28" value="" style="edgeStyle=orthogonalEdgeStyle;rounded=0;orthogonalLoop=1;jettySize=auto;html=1;entryX=0;entryY=0.5;entryDx=0;entryDy=0;opacity=40;textOpacity=40;" edge="1" parent="szTaljV_OaURg2IB99l--1" source="szTaljV_OaURg2IB99l--11" target="szTaljV_OaURg2IB99l--29">
          <mxGeometry relative="1" as="geometry">
            <mxPoint x="710" y="175" as="sourcePoint" />
            <mxPoint x="900" y="45" as="targetPoint" />
          </mxGeometry>
        </mxCell>
        <mxCell id="szTaljV_OaURg2IB99l--29" value="obtains paymentId &amp;amp; sets payment status" style="text;html=1;align=center;verticalAlign=middle;whiteSpace=wrap;rounded=0;opacity=40;textOpacity=40;" vertex="1" parent="szTaljV_OaURg2IB99l--1">
          <mxGeometry x="770" y="90" width="120" height="30" as="geometry" />
        </mxCell>
        <mxCell id="szTaljV_OaURg2IB99l--30" value="" style="edgeStyle=orthogonalEdgeStyle;rounded=0;orthogonalLoop=1;jettySize=auto;html=1;entryX=0;entryY=0.5;entryDx=0;entryDy=0;opacity=40;textOpacity=40;" edge="1" parent="szTaljV_OaURg2IB99l--1" source="szTaljV_OaURg2IB99l--11" target="szTaljV_OaURg2IB99l--31">
          <mxGeometry relative="1" as="geometry">
            <mxPoint x="710" y="175" as="sourcePoint" />
            <mxPoint x="921" y="95" as="targetPoint" />
          </mxGeometry>
        </mxCell>
        <mxCell id="szTaljV_OaURg2IB99l--31" value="starts and stops upload batch &amp;amp; adds attachment metadata to case" style="text;html=1;align=center;verticalAlign=middle;whiteSpace=wrap;rounded=0;opacity=40;textOpacity=40;" vertex="1" parent="szTaljV_OaURg2IB99l--1">
          <mxGeometry x="770" y="142.5" width="120" height="65" as="geometry" />
        </mxCell>
        <mxCell id="szTaljV_OaURg2IB99l--32" value="" style="edgeStyle=orthogonalEdgeStyle;rounded=0;orthogonalLoop=1;jettySize=auto;html=1;entryX=0;entryY=0.5;entryDx=0;entryDy=0;opacity=40;textOpacity=40;" edge="1" parent="szTaljV_OaURg2IB99l--1" source="szTaljV_OaURg2IB99l--11" target="szTaljV_OaURg2IB99l--33">
          <mxGeometry relative="1" as="geometry">
            <mxPoint x="710" y="175" as="sourcePoint" />
            <mxPoint x="921" y="145" as="targetPoint" />
          </mxGeometry>
        </mxCell>
        <mxCell id="szTaljV_OaURg2IB99l--33" value="uploads attachment file content to document vault" style="text;html=1;align=center;verticalAlign=middle;whiteSpace=wrap;rounded=0;opacity=40;textOpacity=40;" vertex="1" parent="szTaljV_OaURg2IB99l--1">
          <mxGeometry x="770" y="235" width="120" height="30" as="geometry" />
        </mxCell>
        <mxCell id="szTaljV_OaURg2IB99l--34" value="" style="edgeStyle=orthogonalEdgeStyle;rounded=0;orthogonalLoop=1;jettySize=auto;html=1;entryX=0;entryY=0.5;entryDx=0;entryDy=0;opacity=40;textOpacity=40;" edge="1" parent="szTaljV_OaURg2IB99l--1" source="szTaljV_OaURg2IB99l--11" target="szTaljV_OaURg2IB99l--35">
          <mxGeometry relative="1" as="geometry">
            <mxPoint x="710" y="175" as="sourcePoint" />
            <mxPoint x="921" y="195" as="targetPoint" />
          </mxGeometry>
        </mxCell>
        <mxCell id="szTaljV_OaURg2IB99l--35" value="updates the upload status of documents" style="text;html=1;align=center;verticalAlign=middle;whiteSpace=wrap;rounded=0;opacity=40;textOpacity=40;" vertex="1" parent="szTaljV_OaURg2IB99l--1">
          <mxGeometry x="770" y="300" width="120" height="30" as="geometry" />
        </mxCell>
        <mxCell id="szTaljV_OaURg2IB99l--36" style="edgeStyle=orthogonalEdgeStyle;rounded=0;orthogonalLoop=1;jettySize=auto;html=1;entryX=1;entryY=0.5;entryDx=0;entryDy=0;dashed=1;opacity=40;textOpacity=40;" edge="1" parent="szTaljV_OaURg2IB99l--1" source="szTaljV_OaURg2IB99l--37" target="szTaljV_OaURg2IB99l--25">
          <mxGeometry relative="1" as="geometry" />
        </mxCell>
        <mxCell id="szTaljV_OaURg2IB99l--37" value="Exxellence" style="rounded=0;whiteSpace=wrap;html=1;fillColor=#dae8fc;strokeColor=#6c8ebf;opacity=40;textOpacity=40;" vertex="1" parent="szTaljV_OaURg2IB99l--1">
          <mxGeometry x="1150" y="145" width="120" height="60" as="geometry" />
        </mxCell>
        <mxCell id="szTaljV_OaURg2IB99l--38" style="edgeStyle=orthogonalEdgeStyle;rounded=0;orthogonalLoop=1;jettySize=auto;html=1;entryX=1;entryY=0.5;entryDx=0;entryDy=0;dashed=1;exitX=0;exitY=0.5;exitDx=0;exitDy=0;opacity=40;textOpacity=40;" edge="1" parent="szTaljV_OaURg2IB99l--1" source="szTaljV_OaURg2IB99l--37" target="szTaljV_OaURg2IB99l--21">
          <mxGeometry relative="1" as="geometry">
            <mxPoint x="1160" y="185" as="sourcePoint" />
            <mxPoint x="1091" y="55" as="targetPoint" />
          </mxGeometry>
        </mxCell>
        <mxCell id="szTaljV_OaURg2IB99l--39" style="edgeStyle=orthogonalEdgeStyle;rounded=0;orthogonalLoop=1;jettySize=auto;html=1;entryX=1;entryY=0.5;entryDx=0;entryDy=0;dashed=1;exitX=0;exitY=0.5;exitDx=0;exitDy=0;opacity=40;textOpacity=40;" edge="1" parent="szTaljV_OaURg2IB99l--1" source="szTaljV_OaURg2IB99l--37" target="szTaljV_OaURg2IB99l--23">
          <mxGeometry relative="1" as="geometry">
            <mxPoint x="1160" y="185" as="sourcePoint" />
            <mxPoint x="1091" y="114" as="targetPoint" />
          </mxGeometry>
        </mxCell>
        <mxCell id="szTaljV_OaURg2IB99l--40" style="edgeStyle=orthogonalEdgeStyle;rounded=0;orthogonalLoop=1;jettySize=auto;html=1;entryX=1;entryY=0.5;entryDx=0;entryDy=0;dashed=1;exitX=0;exitY=0.5;exitDx=0;exitDy=0;opacity=40;textOpacity=40;" edge="1" parent="szTaljV_OaURg2IB99l--1" source="szTaljV_OaURg2IB99l--37" target="szTaljV_OaURg2IB99l--24">
          <mxGeometry relative="1" as="geometry">
            <mxPoint x="1160" y="185" as="sourcePoint" />
            <mxPoint x="1091" y="185" as="targetPoint" />
          </mxGeometry>
        </mxCell>
        <mxCell id="szTaljV_OaURg2IB99l--41" style="edgeStyle=orthogonalEdgeStyle;rounded=0;orthogonalLoop=1;jettySize=auto;html=1;entryX=1;entryY=0.5;entryDx=0;entryDy=0;dashed=1;exitX=0;exitY=0.5;exitDx=0;exitDy=0;opacity=40;textOpacity=40;" edge="1" parent="szTaljV_OaURg2IB99l--1" source="szTaljV_OaURg2IB99l--37" target="szTaljV_OaURg2IB99l--22">
          <mxGeometry relative="1" as="geometry">
            <mxPoint x="1160" y="185" as="sourcePoint" />
            <mxPoint x="1091" y="260" as="targetPoint" />
          </mxGeometry>
        </mxCell>
        <mxCell id="9nDwpWP-V4P5zCPExfbS-0" value="Zaken API" style="rounded=1;whiteSpace=wrap;html=1;fillColor=#d5e8d4;strokeColor=#82b366;" vertex="1" parent="szTaljV_OaURg2IB99l--1">
          <mxGeometry x="350" y="160" width="130" height="30" as="geometry" />
        </mxCell>
        <mxCell id="9nDwpWP-V4P5zCPExfbS-1" value="Catalogi API" style="rounded=1;whiteSpace=wrap;html=1;fillColor=#fff2cc;strokeColor=#d6b656;" vertex="1" parent="szTaljV_OaURg2IB99l--1">
          <mxGeometry x="350" y="260" width="130" height="30" as="geometry" />
        </mxCell>
        <mxCell id="9nDwpWP-V4P5zCPExfbS-8" style="edgeStyle=orthogonalEdgeStyle;rounded=0;orthogonalLoop=1;jettySize=auto;html=1;entryX=0.5;entryY=1;entryDx=0;entryDy=0;dashed=1;" edge="1" parent="szTaljV_OaURg2IB99l--1" source="9nDwpWP-V4P5zCPExfbS-4" target="9nDwpWP-V4P5zCPExfbS-1">
          <mxGeometry relative="1" as="geometry" />
        </mxCell>
        <mxCell id="9nDwpWP-V4P5zCPExfbS-4" value="OpenZaak" style="rounded=0;whiteSpace=wrap;html=1;fillColor=#fff2cc;strokeColor=#d6b656;" vertex="1" parent="szTaljV_OaURg2IB99l--1">
          <mxGeometry x="355" y="350" width="120" height="60" as="geometry" />
        </mxCell>
        <mxCell id="9nDwpWP-V4P5zCPExfbS-7" value="" style="edgeStyle=orthogonalEdgeStyle;rounded=0;orthogonalLoop=1;jettySize=auto;html=1;entryX=0.5;entryY=0;entryDx=0;entryDy=0;exitX=0.5;exitY=1;exitDx=0;exitDy=0;" edge="1" parent="szTaljV_OaURg2IB99l--1" source="szTaljV_OaURg2IB99l--3" target="9nDwpWP-V4P5zCPExfbS-6">
          <mxGeometry relative="1" as="geometry">
            <mxPoint x="160" y="205" as="sourcePoint" />
            <mxPoint x="350" y="275" as="targetPoint" />
          </mxGeometry>
        </mxCell>
        <mxCell id="9nDwpWP-V4P5zCPExfbS-6" value="retrieves zaak, rol, status, etc types" style="text;html=1;align=center;verticalAlign=middle;whiteSpace=wrap;rounded=0;" vertex="1" parent="szTaljV_OaURg2IB99l--1">
          <mxGeometry x="107.5" y="220" width="105" height="30" as="geometry" />
        </mxCell>
        <mxCell id="jux0nmY_4wJP9NHEwxpd-2" value="" style="edgeStyle=orthogonalEdgeStyle;rounded=0;orthogonalLoop=1;jettySize=auto;html=1;entryX=0;entryY=0.5;entryDx=0;entryDy=0;" edge="1" parent="szTaljV_OaURg2IB99l--1" source="szTaljV_OaURg2IB99l--3" target="jux0nmY_4wJP9NHEwxpd-1">
          <mxGeometry relative="1" as="geometry">
            <mxPoint x="220" y="175" as="sourcePoint" />
            <mxPoint x="350" y="175" as="targetPoint" />
          </mxGeometry>
        </mxCell>
        <mxCell id="jux0nmY_4wJP9NHEwxpd-1" value="creates zaak, rollen, statussen, etc" style="text;html=1;align=center;verticalAlign=middle;whiteSpace=wrap;rounded=0;" vertex="1" parent="szTaljV_OaURg2IB99l--1">
          <mxGeometry x="230" y="160" width="90" height="30" as="geometry" />
        </mxCell>
        <mxCell id="jux0nmY_4wJP9NHEwxpd-5" value="" style="edgeStyle=orthogonalEdgeStyle;rounded=0;orthogonalLoop=1;jettySize=auto;html=1;entryX=0.5;entryY=0;entryDx=0;entryDy=0;exitX=0.5;exitY=1;exitDx=0;exitDy=0;" edge="1" parent="szTaljV_OaURg2IB99l--1" source="szTaljV_OaURg2IB99l--11" target="jux0nmY_4wJP9NHEwxpd-4">
          <mxGeometry relative="1" as="geometry">
            <mxPoint x="650" y="205" as="sourcePoint" />
            <mxPoint x="480" y="275" as="targetPoint" />
          </mxGeometry>
        </mxCell>
        <mxCell id="jux0nmY_4wJP9NHEwxpd-4" value="retrieves zaak, rol, status, etc types" style="text;html=1;align=center;verticalAlign=middle;whiteSpace=wrap;rounded=0;" vertex="1" parent="szTaljV_OaURg2IB99l--1">
          <mxGeometry x="597.5" y="220" width="105" height="30" as="geometry" />
        </mxCell>
        <mxCell id="jux0nmY_4wJP9NHEwxpd-8" value="Not Implemented" style="text;html=1;align=center;verticalAlign=middle;whiteSpace=wrap;rounded=0;fontColor=#FF0000;fontStyle=1;fontSize=23;" vertex="1" parent="szTaljV_OaURg2IB99l--1">
          <mxGeometry x="810" y="140" width="210" height="50" as="geometry" />
        </mxCell>
      </root>
    </mxGraphModel>
  </diagram>
</mxfile>
